<?xml version="1.0" standalone="no"?>
<!DOCTYPE svg PUBLIC "-//W3C//DTD SVG 20010904//EN"
 "http://www.w3.org/TR/2001/REC-SVG-20010904/DTD/svg10.dtd">
<svg version="1.0" xmlns="http://www.w3.org/2000/svg"
 width="473.000000pt" height="361.000000pt" viewBox="0 0 473.000000 361.000000"
 preserveAspectRatio="xMidYMid meet">
<metadata>
Created by potrace 1.16, written by Peter Selinger 2001-2019
</metadata>
<g transform="translate(0.000000,361.000000) scale(0.100000,-0.100000)"
fill="#000000" stroke="none">
<path d="M2236 2768 c-34 -45 -76 -132 -76 -156 0 -12 -4 -23 -9 -26 -4 -3
-11 -42 -15 -86 -10 -118 12 -146 73 -95 l30 26 -6 -35 c-6 -40 15 -58 42 -36
10 8 29 10 54 6 30 -5 42 -2 56 14 10 11 25 20 33 20 8 0 28 15 46 33 17 17
28 28 24 23 -10 -12 -10 -46 -1 -46 3 0 19 15 34 33 l28 32 1 -53 c0 -71 23
-65 32 9 4 30 10 69 13 86 6 25 3 34 -9 39 -9 3 -16 16 -16 28 0 14 -14 33
-39 52 -22 16 -47 41 -56 57 -9 15 -25 27 -36 27 -12 0 -33 14 -47 30 -15 17
-36 30 -49 30 -12 0 -25 5 -28 10 -13 21 -54 10 -79 -22z"/>
<path d="M1904 1031 c-2 -2 -1 -15 1 -27 3 -13 7 -35 10 -48 l5 -24 176 1
c173 0 175 0 170 21 -4 12 -9 33 -12 49 -5 21 -12 27 -33 27 -186 4 -313 4
-317 1z"/>
<path d="M2593 1032 c-20 -3 -23 -9 -23 -53 0 -43 3 -50 18 -47 9 2 17 10 17
17 0 23 22 24 28 2 4 -18 13 -20 65 -19 60 2 61 2 64 32 4 41 22 40 26 -1 3
-35 22 -46 22 -14 0 11 5 23 10 26 6 3 10 17 10 31 0 23 -2 24 -80 24 -57 0
-80 -4 -80 -12 0 -10 -2 -10 -8 0 -10 14 -37 20 -69 14z"/>
<path d="M2287 1023 c-2 -5 -2 -27 1 -50 l4 -41 66 1 c37 0 70 5 74 11 5 8 8
7 8 -1 0 -24 26 -13 37 15 l11 27 1 -27 c1 -22 6 -28 24 -28 32 0 37 7 27 41
-5 17 -5 31 1 34 5 4 9 10 9 16 0 11 -257 13 -263 2z"/>
</g>
</svg>
